<?xml version="1.0" standalone="no"?>
<!DOCTYPE svg PUBLIC "-//W3C//DTD SVG 20010904//EN"
 "http://www.w3.org/TR/2001/REC-SVG-20010904/DTD/svg10.dtd">
<svg version="1.0" xmlns="http://www.w3.org/2000/svg"
 width="5000.000000pt" height="4286.000000pt" viewBox="0 0 5000.000000 4286.000000"
 preserveAspectRatio="xMidYMid meet">

<g transform="translate(0.000000,4286.000000) scale(0.100000,-0.100000)"
fill="#000000" stroke="none">
<path d="M41974 38959 c-40 -9 -45 -16 -135 -157 -52 -81 -143 -221 -203 -311
-115 -174 -207 -320 -325 -514 -39 -65 -147 -227 -240 -360 -92 -133 -248
-374 -347 -535 -98 -161 -187 -306 -198 -323 -16 -26 -4 -21 90 44 249 171
1107 670 1564 910 179 94 652 296 1040 443 79 31 148 58 153 61 12 7 -60 54
-307 200 -116 69 -311 188 -434 264 -123 77 -290 173 -372 214 -160 80 -187
86 -286 64z"/>
<path d="M26739 38615 c-3 -2 -297 -7 -654 -10 -669 -6 -849 -14 -1410 -61
-353 -29 -672 -69 -991 -124 -239 -41 -720 -137 -735 -146 -29 -18 -171 -310
-256 -529 -49 -127 -123 -345 -199 -590 -36 -115 -102 -322 -146 -460 -44
-137 -109 -360 -144 -495 -36 -135 -83 -307 -106 -383 -22 -76 -38 -140 -36
-142 2 -2 73 59 158 137 306 277 895 696 1495 1063 967 592 2079 1195 2920
1584 132 61 263 122 290 135 l50 25 -116 0 c-64 1 -118 -1 -120 -4z"/>
<path d="M27924 38419 c-27 -4 -101 -24 -163 -44 -62 -19 -147 -44 -189 -55
-277 -70 -842 -268 -1208 -423 -137 -58 -299 -125 -360 -150 -61 -25 -151 -64
-200 -87 -49 -23 -231 -107 -404 -188 -408 -189 -770 -370 -1045 -523 -121
-67 -285 -155 -365 -194 -80 -40 -221 -121 -315 -181 -93 -59 -285 -177 -425
-262 -563 -341 -767 -472 -829 -533 -69 -69 -138 -199 -266 -499 -257 -603
-508 -1807 -564 -2711 -5 -77 -12 -143 -15 -146 -6 -6 -453 100 -671 159 -241
64 -665 168 -749 183 -49 8 -145 15 -215 15 -169 -1 -171 -1 -491 -228 -284
-202 -609 -458 -954 -752 -294 -250 -341 -289 -347 -290 -3 0 -9 57 -13 128
-6 117 -19 218 -46 362 -6 30 -30 108 -53 174 -86 245 -156 270 -491 181 -72
-19 -159 -41 -193 -49 l-61 -14 -16 70 c-22 97 -67 176 -140 246 -72 69 -139
106 -233 128 -187 44 -400 -45 -513 -213 -15 -22 -16 -22 -80 53 -253 298
-745 770 -967 928 -51 37 -53 39 -53 86 0 69 -44 230 -81 301 -99 185 -325
301 -525 269 -211 -34 -366 -169 -428 -372 l-22 -70 -59 54 c-143 126 -350
281 -503 374 -62 37 -117 94 -417 429 -262 293 -974 1059 -1074 1155 -113 109
-493 461 -681 630 -112 102 -281 257 -375 345 -93 88 -251 232 -350 320 -99
88 -212 193 -251 233 l-70 74 -30 -35 c-72 -85 -124 -160 -344 -505 -242 -378
-305 -479 -672 -1077 -444 -723 -829 -1408 -1190 -2115 -479 -938 -560 -1109
-788 -1680 -54 -135 -128 -315 -165 -400 -93 -217 -188 -465 -284 -740 -45
-129 -91 -259 -102 -288 -10 -29 -19 -55 -19 -58 0 -3 65 123 144 279 147 290
199 385 396 727 62 107 185 328 273 490 521 960 1152 1976 1827 2940 389 556
793 1061 1097 1373 156 159 126 155 260 40 93 -79 379 -360 464 -455 l60 -67
-38 12 c-55 16 -217 12 -296 -7 -93 -22 -156 -56 -234 -128 -38 -34 -102 -89
-144 -122 -377 -302 -634 -576 -894 -956 -43 -63 -102 -144 -131 -180 -106
-134 -384 -524 -557 -785 -965 -1448 -1801 -3266 -2549 -5540 -236 -720 -503
-1602 -653 -2160 -31 -115 -69 -257 -85 -315 -219 -802 -464 -1894 -659 -2935
-146 -782 -342 -2228 -401 -2955 -6 -74 -19 -241 -30 -370 -59 -691 -97 -1836
-86 -2575 7 -461 28 -1091 46 -1340 5 -77 19 -270 30 -430 11 -159 41 -483 65
-720 211 -2051 664 -4059 1345 -5970 449 -1259 1030 -2546 1693 -3750 60 -110
111 -201 112 -203 1 -1 73 49 161 111 87 62 218 153 289 202 72 49 182 124
244 168 63 43 270 174 460 290 555 338 882 539 1253 770 190 118 424 259 520
312 95 53 230 135 300 181 70 46 191 115 270 152 79 38 235 120 348 182 427
236 502 275 765 397 149 68 410 196 580 283 337 172 617 296 960 425 121 46
263 100 315 120 52 20 165 61 250 92 85 30 230 84 323 120 181 70 200 73 242
27 17 -18 26 -43 30 -82 3 -31 8 -68 10 -82 4 -23 -11 -35 -168 -134 -94 -61
-208 -133 -252 -162 -44 -28 -260 -167 -480 -309 -220 -141 -465 -299 -545
-352 -157 -102 -507 -332 -945 -618 -1145 -749 -1435 -940 -2216 -1458 -412
-273 -832 -550 -932 -614 -100 -64 -211 -135 -247 -158 -180 -116 -596 -370
-760 -463 -102 -58 -260 -151 -351 -207 -92 -57 -176 -106 -186 -109 -25 -8
-28 -4 -150 179 -68 102 -122 198 -169 300 -37 83 -108 230 -156 328 -49 98
-122 269 -164 380 -139 369 -631 1391 -886 1842 -225 399 -372 654 -375 651
-3 -2 29 -110 127 -431 118 -386 280 -929 416 -1400 268 -921 489 -1537 768
-2133 84 -181 243 -492 268 -524 12 -16 27 -9 173 80 395 239 1159 754 1556
1048 295 218 425 306 760 515 428 266 609 381 1144 726 55 35 141 90 190 122
97 62 979 612 1625 1012 394 245 444 276 890 544 208 126 798 483 1119 677 62
38 114 68 116 66 1 -2 18 -30 38 -63 99 -165 264 -289 445 -336 99 -25 294
-49 402 -49 188 0 479 74 800 203 536 215 2259 1094 2695 1375 115 74 138 89
376 244 l176 115 6 -241 c14 -520 76 -980 151 -1123 102 -193 333 -302 533
-250 l52 14 6 -61 c6 -69 67 -1000 90 -1386 8 -140 19 -384 25 -543 15 -379
30 -437 155 -563 267 -271 727 -138 815 235 24 104 5 543 -85 1926 -18 292
-39 658 -46 815 -11 292 -10 1143 3 1155 4 4 20 3 35 -3 15 -6 98 -36 183 -67
797 -294 1070 -365 1399 -365 186 0 400 39 502 91 l37 18 6 -37 c3 -20 6 -163
6 -317 0 -373 17 -942 35 -1192 10 -148 20 -218 35 -265 58 -172 206 -299 388
-330 251 -43 507 143 552 399 10 55 9 114 -4 308 -10 139 -21 510 -26 880 -10
627 -25 1191 -37 1370 l-6 90 84 101 c46 55 107 129 134 165 l50 64 7 -340 c4
-187 19 -925 33 -1640 28 -1464 46 -2205 75 -3085 41 -1268 101 -2532 126
-2646 25 -118 104 -231 210 -300 296 -192 694 -7 742 346 5 35 -1 226 -14 496
-47 901 -94 2180 -124 3339 -9 351 -22 996 -56 2722 l-7 342 39 -11 c23 -7
114 -12 224 -13 179 0 188 1 275 30 171 56 519 244 915 494 74 47 178 111 230
143 l94 58 28 -72 c16 -40 60 -169 98 -286 196 -596 308 -1052 409 -1667 38
-236 73 -457 76 -490 11 -102 66 -430 73 -437 4 -4 43 -20 87 -36 44 -16 139
-54 210 -85 72 -30 204 -85 295 -121 91 -35 224 -93 295 -126 160 -77 414
-189 735 -327 135 -58 274 -119 310 -135 36 -17 124 -56 195 -88 199 -88 629
-290 639 -300 5 -5 4 -110 -3 -257 -20 -420 -25 -820 -12 -885 39 -183 195
-339 379 -377 243 -51 488 96 562 337 17 55 21 112 30 415 5 194 19 532 30
752 11 220 20 431 20 470 0 81 -20 42 464 914 l285 515 -6 -1390 c-6 -1533 -7
-1511 57 -2359 22 -286 46 -617 55 -736 21 -294 36 -863 24 -945 -30 -212 105
-438 307 -514 135 -50 261 -44 390 20 145 71 236 196 268 369 26 135 16 711
-19 1191 -9 113 -33 441 -55 730 -22 289 -44 653 -50 810 -13 332 -7 1293 21
3880 l10 965 65 163 c51 127 164 445 201 565 3 9 7 17 9 17 11 0 348 -306 502
-455 490 -476 912 -985 1245 -1503 390 -605 629 -1104 842 -1757 63 -195 115
-360 115 -367 1 -40 15 -40 136 0 65 22 149 51 185 65 l66 25 59 -60 c81 -82
216 -169 429 -277 190 -95 267 -121 371 -121 115 0 185 30 569 250 284 162
550 308 692 379 194 97 750 437 1153 705 331 219 749 484 874 552 272 147 310
240 351 859 12 177 16 498 20 1381 4 1117 9 1320 40 1774 22 305 33 409 48
430 11 16 16 -27 30 -273 27 -442 44 -777 72 -1377 14 -300 34 -720 45 -935
10 -214 22 -493 25 -620 3 -126 10 -333 16 -460 6 -126 16 -417 23 -645 l13
-415 -61 -64 c-169 -176 -439 -403 -851 -717 -447 -341 -620 -467 -900 -656
-159 -107 -355 -243 -435 -302 -216 -159 -531 -386 -742 -535 -103 -73 -290
-218 -415 -322 -126 -105 -318 -258 -428 -342 -129 -97 -244 -195 -325 -275
-114 -113 -120 -120 -70 -89 30 19 161 98 290 177 246 150 837 527 1170 745
438 288 529 347 860 555 190 120 494 307 675 417 182 110 458 280 615 378 157
98 409 247 560 333 319 179 442 252 452 266 7 11 4 1700 -7 2841 -6 763 6
2177 25 2965 l11 435 39 60 c21 33 107 197 192 365 85 168 182 356 217 417
l63 113 -55 152 c-153 422 -232 699 -274 953 -15 95 -18 167 -16 520 2 596 26
1779 38 1860 3 22 23 218 45 435 42 411 117 1004 170 1340 17 107 42 267 55
355 26 164 113 659 121 683 3 10 11 8 34 -8 48 -34 191 -97 248 -109 75 -16
238 -14 305 4 167 43 334 178 409 330 73 147 65 356 -22 530 -67 134 -249 304
-390 362 -57 23 -82 27 -207 31 -79 2 -143 8 -143 13 0 5 14 67 31 137 17 70
57 240 90 377 67 279 226 870 295 1100 195 643 302 958 461 1359 106 268 145
354 184 411 19 28 43 70 53 93 16 36 21 40 29 26 11 -19 18 -11 171 171 121
143 516 661 669 877 l98 137 9 168 c23 404 40 1018 38 1378 -1 215 -1 415 -1
445 1 30 6 1205 12 2610 13 2914 7 5218 -15 5785 -29 760 -34 882 -40 945 l-7
65 -23 -139 c-12 -77 -34 -191 -48 -255 -31 -144 -59 -403 -86 -801 -11 -168
-27 -381 -35 -475 -8 -93 -19 -228 -25 -299 -5 -71 -19 -181 -30 -245 -11 -64
-42 -296 -70 -516 -28 -220 -77 -587 -110 -815 -33 -228 -82 -611 -110 -850
-28 -239 -74 -583 -101 -765 -143 -954 -232 -1601 -274 -2010 -73 -710 -141
-1759 -151 -2340 l-6 -370 -43 -75 c-24 -41 -64 -124 -88 -185 -25 -60 -62
-146 -82 -190 -21 -44 -48 -109 -62 -145 -38 -101 -145 -341 -150 -336 -2 2 9
98 26 212 173 1182 411 3050 471 3699 22 242 52 559 65 705 14 146 47 535 75
865 93 1123 108 1484 116 2755 8 1206 -6 1824 -51 2190 -9 69 -20 179 -25 245
-13 177 -59 284 -166 384 -74 70 -158 114 -261 137 -105 23 -194 15 -326 -31
-58 -20 -174 -53 -259 -74 -413 -104 -502 -132 -903 -283 -555 -210 -805 -316
-1385 -586 -960 -446 -1712 -894 -2125 -1265 -258 -232 -271 -244 -304 -306
-47 -89 -81 -196 -88 -276 -10 -130 28 -239 132 -370 77 -97 164 -230 191
-292 83 -185 214 -648 240 -844 l7 -50 -54 32 c-30 18 -78 46 -106 63 l-53 30
-199 381 c-110 209 -227 430 -261 490 -34 61 -118 209 -185 331 -414 745 -582
974 -944 1287 -198 170 -290 212 -441 201 -260 -19 -579 -121 -1130 -361 -69
-30 -198 -83 -287 -119 -161 -63 -164 -64 -260 -64 -68 0 -101 4 -112 14 -28
24 -401 270 -536 353 -71 44 -170 106 -220 138 -334 216 -916 554 -1425 828
-390 210 -505 255 -680 264 -120 6 -188 -8 -276 -58 -28 -16 -66 -29 -84 -29
-39 0 -203 -67 -262 -108 -24 -16 -75 -45 -114 -65 -83 -42 -224 -145 -417
-304 -344 -285 -1110 -860 -1632 -1224 -137 -97 -294 -207 -348 -247 -115 -83
-87 -77 -437 -91 -416 -17 -850 -69 -1183 -140 -156 -34 -267 -63 -529 -138
-22 -6 5 53 224 492 351 706 587 1165 635 1235 28 41 94 134 147 205 53 72
112 162 131 200 57 116 69 254 35 407 -22 102 -52 165 -114 239 -25 30 -89
109 -141 175 -140 178 -206 242 -301 291 -132 69 -231 85 -370 62z m-2209
-1909 c121 -5 263 -14 315 -20 52 -5 138 -14 190 -20 511 -51 961 -137 960
-183 0 -6 -30 -32 -67 -57 -73 -49 -211 -181 -291 -278 -150 -182 -288 -438
-411 -762 -18 -47 -38 -101 -46 -120 -75 -193 -262 -744 -321 -942 -8 -27 -20
-69 -28 -95 -49 -166 -90 -305 -101 -348 -8 -27 -30 -111 -50 -185 -44 -161
-130 -509 -149 -600 -8 -36 -24 -108 -36 -160 -21 -95 -35 -158 -64 -300 -8
-41 -25 -118 -36 -170 -11 -52 -27 -126 -35 -165 -8 -38 -30 -144 -49 -235
-54 -264 -271 -1347 -311 -1555 -20 -104 -41 -212 -46 -240 -11 -54 -49 -264
-75 -410 -8 -49 -22 -124 -29 -165 -8 -41 -19 -104 -24 -140 -6 -36 -28 -173
-51 -305 -22 -132 -44 -267 -50 -300 -5 -33 -18 -121 -30 -195 -30 -191 -49
-311 -65 -420 -7 -52 -23 -160 -35 -240 -12 -80 -28 -192 -36 -250 -8 -58 -21
-150 -28 -205 -23 -161 -55 -401 -71 -525 -8 -63 -21 -169 -30 -235 -24 -184
-54 -436 -70 -580 -8 -71 -21 -191 -30 -265 -23 -205 -54 -497 -71 -670 -22
-223 -40 -406 -64 -640 -11 -113 -27 -272 -35 -355 -27 -286 -45 -471 -65
-675 -27 -271 -46 -470 -64 -665 -9 -88 -25 -257 -36 -375 -11 -118 -27 -285
-35 -370 -8 -85 -21 -227 -29 -315 -9 -88 -22 -234 -30 -325 -9 -91 -20 -210
-26 -265 -5 -55 -21 -226 -35 -380 -14 -154 -34 -374 -45 -490 -11 -115 -27
-282 -35 -370 -37 -406 -45 -491 -60 -645 -9 -91 -20 -192 -25 -225 -5 -33
-11 -105 -15 -160 -3 -55 -8 -119 -10 -141 -2 -23 -11 -180 -20 -350 -18 -362
-21 -391 -45 -404 -73 -39 -701 -79 -1250 -79 -379 0 -565 17 -621 59 -22 18
-23 19 -10 86 8 38 19 103 26 144 8 41 25 136 38 210 28 150 77 469 92 590 5
38 30 220 66 470 5 36 16 106 24 155 59 368 87 537 95 580 5 28 14 88 19 135
6 47 20 162 31 255 21 166 33 274 64 540 9 72 25 209 36 305 43 366 72 616
100 860 11 96 27 234 35 305 9 72 22 189 30 260 8 72 24 213 35 315 33 295 50
446 65 585 8 72 23 213 34 315 12 102 34 311 51 465 16 154 39 366 50 470 12
105 27 251 35 325 8 74 17 155 20 180 3 25 9 88 15 140 10 96 19 177 94 835 8
72 24 209 36 305 11 96 27 231 35 300 20 167 65 535 101 815 8 66 21 172 29
235 8 63 23 187 35 275 11 88 27 212 35 275 8 63 21 167 30 230 9 63 24 180
35 260 10 80 26 199 35 265 41 299 84 617 96 710 5 44 12 94 14 110 3 17 12
82 20 145 18 138 48 372 70 530 9 63 22 165 30 225 13 101 30 228 70 520 9 61
22 160 30 220 8 61 24 178 35 260 12 83 28 200 36 260 56 419 89 632 158 1035
31 182 62 342 171 880 14 69 39 180 55 245 5 22 19 81 30 130 31 136 89 375
100 415 6 19 22 82 36 140 54 215 169 500 281 695 69 120 148 217 281 347 107
104 126 118 177 133 102 30 378 40 710 25z m9196 -947 c16 -13 16 -14 -30
-493 -11 -118 -25 -267 -31 -330 -5 -63 -12 -135 -15 -160 -3 -25 -10 -90 -15
-145 -10 -101 -33 -302 -51 -450 -5 -44 -16 -134 -24 -200 -8 -66 -23 -192
-35 -280 -11 -88 -28 -212 -36 -275 -8 -63 -21 -167 -30 -230 -8 -63 -21 -167
-29 -230 -8 -63 -24 -182 -35 -265 -12 -82 -27 -199 -35 -260 -8 -60 -21 -159
-30 -220 -8 -60 -24 -175 -34 -255 -43 -310 -85 -613 -136 -970 -7 -52 -20
-144 -29 -205 -8 -60 -24 -173 -36 -250 -11 -77 -27 -185 -35 -240 -8 -55 -31
-208 -50 -340 -20 -132 -43 -285 -50 -340 -8 -55 -21 -143 -29 -195 -16 -101
-79 -532 -101 -690 -8 -52 -23 -162 -35 -245 -12 -82 -28 -195 -36 -250 -8
-55 -21 -147 -29 -205 -7 -58 -23 -170 -34 -250 -11 -80 -27 -194 -35 -255 -9
-60 -22 -162 -31 -225 -26 -186 -54 -397 -70 -520 -8 -63 -21 -167 -30 -230
-18 -129 -51 -384 -66 -505 -5 -44 -12 -93 -14 -110 -3 -16 -12 -82 -19 -145
-17 -133 -52 -401 -71 -545 -8 -55 -21 -152 -29 -215 -9 -63 -25 -182 -36
-265 -11 -82 -27 -202 -36 -265 -26 -197 -43 -329 -64 -490 -12 -85 -27 -207
-35 -270 -8 -63 -21 -169 -30 -235 -28 -211 -55 -427 -70 -545 -7 -63 -21
-171 -29 -240 -8 -69 -25 -201 -36 -295 -35 -288 -49 -405 -65 -540 -8 -71
-24 -206 -35 -300 -11 -93 -27 -228 -35 -300 -8 -71 -21 -188 -29 -260 -23
-196 -54 -473 -71 -630 -8 -77 -22 -201 -30 -275 -21 -192 -53 -491 -70 -655
-8 -77 -21 -205 -30 -285 -20 -195 -53 -520 -65 -655 -6 -60 -13 -128 -15
-150 -3 -22 -12 -110 -20 -195 -8 -85 -24 -249 -35 -365 -12 -115 -27 -284
-35 -375 -8 -91 -21 -239 -30 -330 -17 -187 -49 -546 -65 -725 -11 -128 -17
-201 -25 -292 -3 -32 -10 -114 -15 -183 -6 -69 -19 -233 -30 -365 -11 -132
-24 -301 -30 -375 -11 -151 -19 -248 -25 -300 -2 -19 -6 -84 -10 -145 -3 -60
-10 -155 -16 -210 -8 -90 -16 -193 -49 -670 -5 -77 -12 -169 -15 -205 -2 -36
-9 -137 -15 -225 -5 -88 -15 -223 -20 -300 -6 -77 -17 -255 -25 -395 -14 -236
-27 -462 -40 -670 -2 -47 -12 -197 -20 -335 -8 -137 -24 -394 -35 -570 -11
-176 -24 -394 -29 -485 -6 -91 -13 -201 -16 -245 -28 -392 -37 -521 -55 -730
-45 -548 -103 -1154 -129 -1356 -17 -132 -92 -401 -136 -489 -29 -57 -57 -83
-120 -111 -47 -22 -61 -23 -255 -22 -113 1 -263 8 -335 15 -193 18 -711 15
-915 -6 -277 -29 -492 -55 -549 -68 l-54 -12 -27 32 c-15 18 -36 32 -49 32
-31 0 -37 27 -16 66 17 33 17 35 -13 141 -17 59 -40 153 -52 208 -11 55 -25
116 -30 135 -5 19 -12 58 -15 85 -4 28 -18 93 -32 145 -14 52 -38 149 -53 215
-16 66 -39 165 -53 220 -13 55 -34 154 -47 220 -29 159 -57 308 -70 370 -6 28
-53 264 -105 525 -52 261 -111 552 -130 645 -20 94 -42 204 -51 245 -32 154
-43 207 -64 300 -11 52 -28 129 -36 170 -27 130 -41 192 -68 315 -15 66 -36
163 -47 215 -11 52 -22 104 -25 115 -2 11 -38 180 -79 375 -41 195 -82 384
-90 420 -11 51 -81 394 -112 550 -68 343 -119 603 -148 755 -20 105 -40 210
-45 235 -26 130 -45 238 -99 580 -70 436 -92 568 -97 595 -3 17 -12 71 -19
120 -8 50 -23 151 -35 225 -47 305 -102 686 -145 995 -8 61 -21 160 -30 220
-19 138 -41 312 -60 480 -9 72 -22 186 -30 255 -16 128 -46 398 -64 575 -6 55
-13 120 -16 145 -46 406 -140 1428 -185 2020 -15 196 -19 247 -25 325 -12 150
-58 836 -75 1100 -5 88 -12 198 -15 244 -14 226 -64 1143 -65 1189 0 17 -4 32
-8 32 -4 0 -13 -51 -20 -112 -7 -62 -19 -165 -26 -228 -29 -240 -57 -480 -71
-605 -8 -71 -21 -195 -30 -275 -25 -236 -55 -524 -70 -690 -24 -245 -43 -439
-65 -665 -11 -115 -27 -277 -35 -360 -8 -82 -17 -172 -20 -200 -2 -27 -9 -99
-15 -160 -16 -181 -49 -511 -65 -650 -27 -239 -44 -384 -50 -417 -5 -31 -12
-92 -51 -463 -35 -341 -75 -796 -94 -1070 -5 -82 -12 -184 -15 -225 -3 -41
-12 -169 -20 -285 -16 -228 -66 -804 -80 -930 -3 -27 -12 -113 -20 -190 -8
-77 -24 -216 -35 -310 -11 -93 -25 -210 -30 -260 -17 -150 -31 -227 -50 -286
-11 -31 -22 -88 -26 -125 -8 -79 -19 -97 -88 -130 -80 -38 -181 -66 -442 -118
-284 -58 -371 -71 -814 -125 -135 -17 -281 -35 -325 -41 -104 -13 -280 -25
-375 -25 -93 0 -146 11 -154 31 -3 8 18 59 48 115 50 91 60 122 120 362 180
720 293 1323 401 2137 14 110 71 501 105 730 11 74 25 167 30 205 6 39 15 95
20 125 5 30 16 100 24 155 27 176 95 598 106 650 9 50 58 380 86 588 22 164
41 307 64 467 11 80 27 196 35 258 8 61 22 163 30 225 8 61 24 177 35 257 11
80 27 196 35 258 30 226 45 340 65 487 11 83 25 188 30 235 6 47 12 96 15 110
3 14 12 77 20 140 13 108 33 262 70 545 9 66 22 172 30 235 8 63 24 185 35
270 11 85 25 191 30 235 14 115 18 146 24 185 3 19 10 73 16 120 9 84 66 542
75 610 11 88 16 126 35 285 11 94 27 222 35 285 8 63 19 156 25 205 5 50 17
149 25 220 18 145 48 406 70 595 8 69 21 186 30 260 31 267 79 698 90 805 4
33 13 119 21 190 14 123 26 241 59 555 8 74 16 171 20 215 22 309 28 398 45
620 11 138 24 306 30 375 5 69 12 154 15 190 5 71 24 290 55 665 45 526 70
957 90 1530 6 165 13 309 15 320 10 44 124 92 300 126 145 28 335 57 449 69
55 6 101 12 103 13 1 2 7 32 12 68 56 371 94 555 166 799 12 41 23 73 69 201
10 26 25 54 34 61 60 52 579 153 1187 232 400 52 983 72 1020 35 13 -12 9 -23
-28 -80 -162 -252 -273 -539 -331 -854 -8 -44 -18 -111 -21 -150 -4 -38 -9
-82 -11 -97 -2 -15 -11 -87 -19 -160 -16 -152 -47 -416 -70 -598 -9 -69 -22
-179 -31 -245 -13 -110 -40 -471 -64 -855 -5 -85 -12 -193 -15 -240 -3 -47
-12 -204 -20 -350 -8 -146 -17 -296 -20 -335 -16 -196 -60 -1305 -74 -1875 -6
-217 -16 -595 -22 -840 -17 -625 -17 -2731 -1 -3120 7 -168 17 -433 22 -590
20 -557 57 -1323 80 -1620 5 -74 14 -209 20 -300 32 -518 97 -1251 159 -1785
54 -459 95 -773 166 -1255 17 -122 31 -218 56 -405 40 -303 128 -872 165
-1070 25 -136 65 -356 79 -440 17 -96 51 -282 71 -385 8 -41 21 -111 29 -155
8 -44 24 -129 35 -190 11 -60 25 -132 30 -160 11 -66 56 -282 105 -510 50
-232 145 -617 220 -900 15 -55 33 -122 40 -150 7 -27 32 -122 55 -210 62 -240
173 -682 210 -838 18 -75 36 -137 40 -137 4 0 10 24 13 52 4 29 13 112 22 183
9 72 22 182 30 245 7 63 23 183 34 265 12 83 28 195 36 250 29 212 47 335 65
470 11 77 26 192 35 255 41 300 81 593 100 735 8 61 17 124 20 140 2 17 9 66
15 110 5 44 19 150 30 235 11 85 25 191 31 235 5 44 12 94 14 110 3 17 12 82
20 145 8 63 24 185 35 270 11 85 25 193 30 240 6 47 12 99 15 115 3 17 12 84
20 150 8 66 24 192 35 280 54 425 117 931 130 1045 5 47 12 102 15 123 3 20 7
54 10 75 3 20 9 75 15 122 5 47 18 159 30 250 11 91 25 208 30 260 6 52 13
111 16 130 2 19 11 91 19 160 8 69 24 204 35 300 29 244 48 404 65 550 8 69
19 166 25 215 34 282 49 415 54 460 11 94 36 300 56 470 11 94 27 229 36 300
36 313 45 390 64 550 11 94 27 226 35 295 8 69 17 143 20 165 3 22 10 81 15
130 9 81 21 181 65 550 7 66 21 179 29 250 28 239 56 469 71 595 8 69 22 184
30 255 8 72 24 207 36 300 11 94 26 226 34 295 15 127 28 240 65 545 11 94 27
226 35 295 18 159 39 340 65 555 12 94 27 229 35 300 8 72 21 191 30 265 23
199 53 472 65 580 6 52 13 118 16 145 35 316 74 679 119 1105 45 438 81 777
90 870 32 327 62 634 75 780 5 63 12 142 15 175 76 861 140 1788 184 2660 6
105 14 258 18 340 11 204 10 1824 -1 2007 l-9 147 34 20 c71 43 334 128 594
191 330 80 717 144 1055 173 102 9 397 2 411 -10z m8550 -3 c5 -8 7 -31 4 -51
-2 -20 -12 -112 -20 -205 -16 -178 -32 -346 -64 -684 -18 -182 -26 -258 -47
-445 -25 -235 -71 -595 -189 -1500 -32 -242 -77 -581 -100 -745 -8 -63 -22
-162 -30 -220 -8 -58 -23 -172 -35 -255 -12 -82 -27 -195 -35 -250 -16 -122
-29 -207 -61 -435 -14 -96 -32 -222 -40 -280 -18 -128 -36 -250 -64 -440 -12
-80 -28 -188 -35 -240 -13 -91 -69 -465 -101 -675 -8 -55 -21 -148 -29 -207
-8 -58 -17 -117 -20 -130 -3 -12 -12 -75 -21 -138 -14 -107 -23 -171 -59 -420
-14 -96 -43 -305 -71 -505 -8 -60 -21 -155 -29 -210 -34 -243 -57 -408 -70
-510 -8 -60 -22 -162 -30 -225 -23 -167 -54 -399 -70 -525 -7 -60 -21 -164
-30 -230 -17 -128 -46 -356 -70 -545 -26 -204 -43 -336 -100 -747 -49 -364
-77 -567 -100 -753 -14 -111 -22 -171 -65 -500 -12 -85 -27 -207 -35 -270 -8
-63 -21 -171 -30 -240 -33 -261 -78 -623 -100 -810 -63 -522 -76 -631 -100
-840 -8 -69 -24 -204 -35 -300 -11 -96 -27 -236 -35 -310 -8 -74 -21 -196 -30
-270 -18 -160 -55 -491 -80 -735 -3 -27 -12 -113 -21 -190 -37 -351 -56 -530
-69 -660 -8 -77 -21 -210 -30 -295 -28 -278 -55 -553 -65 -660 -5 -58 -12
-130 -15 -160 -10 -99 -71 -755 -90 -970 -8 -91 -17 -190 -20 -220 -3 -30 -10
-109 -16 -175 -5 -66 -19 -221 -29 -345 -11 -124 -24 -281 -30 -350 -5 -69
-12 -154 -15 -190 -3 -36 -12 -148 -20 -250 -8 -102 -17 -207 -20 -235 -3 -27
-12 -140 -20 -250 -8 -110 -19 -254 -24 -320 -5 -66 -12 -158 -16 -205 -3 -47
-12 -175 -20 -285 -32 -419 -70 -976 -80 -1145 -6 -108 -21 -362 -55 -915 -11
-176 -24 -399 -30 -495 -5 -96 -12 -206 -15 -245 -2 -38 -7 -113 -10 -165 -49
-854 -111 -1665 -174 -2310 -56 -565 -58 -577 -97 -733 -28 -111 -79 -267 -99
-308 -23 -44 -76 -88 -129 -106 -43 -15 -81 -18 -246 -16 -107 1 -258 8 -335
15 -209 19 -702 16 -910 -6 -166 -17 -517 -61 -582 -72 -29 -6 -35 -2 -50 25
-10 17 -26 31 -35 31 -47 0 -61 27 -33 64 21 27 19 41 -15 158 -28 101 -52
206 -85 378 -14 77 -58 263 -116 490 -34 138 -64 281 -144 705 -20 105 -42
219 -50 255 -8 36 -28 135 -45 220 -16 85 -37 189 -45 230 -9 41 -34 165 -56
275 -22 110 -46 229 -54 265 -8 36 -29 133 -46 215 -29 142 -82 393 -114 535
-8 36 -30 137 -49 225 -19 88 -46 212 -60 275 -34 153 -124 577 -141 665 -8
39 -30 147 -50 240 -19 94 -71 350 -115 570 -44 220 -84 423 -89 450 -27 133
-43 215 -76 390 -57 305 -63 338 -70 385 -3 25 -12 83 -21 130 -8 47 -30 184
-49 305 -19 121 -42 261 -50 310 -8 50 -24 149 -35 220 -11 72 -25 155 -30
185 -5 30 -14 89 -20 130 -6 41 -20 134 -31 205 -11 72 -26 180 -35 240 -8 61
-22 155 -29 210 -21 144 -54 383 -71 505 -22 162 -76 604 -99 818 -35 316 -45
408 -65 587 -11 105 -27 255 -35 335 -8 80 -17 168 -20 195 -2 28 -10 102 -15
165 -6 63 -20 210 -31 325 -46 488 -106 1248 -144 1825 -3 47 -7 101 -10 120
-2 19 -6 91 -10 160 -3 69 -10 179 -15 245 -13 160 -59 950 -75 1300 -8 174
-17 277 -22 272 -4 -5 -27 -183 -58 -459 -8 -71 -22 -188 -30 -260 -27 -228
-54 -477 -70 -633 -30 -289 -81 -807 -95 -960 -6 -60 -13 -132 -15 -160 -3
-27 -12 -117 -20 -200 -8 -82 -24 -242 -35 -355 -11 -113 -25 -254 -30 -315
-6 -60 -12 -130 -15 -155 -3 -25 -12 -117 -20 -205 -8 -88 -24 -234 -35 -325
-94 -759 -150 -1340 -200 -2065 -36 -524 -65 -875 -100 -1215 -11 -107 -24
-240 -30 -295 -5 -55 -12 -118 -15 -140 -3 -22 -12 -103 -21 -180 -8 -77 -17
-147 -19 -155 -2 -8 -9 -62 -15 -120 -6 -58 -22 -141 -35 -185 -13 -44 -27
-110 -30 -147 -8 -73 -16 -82 -95 -119 -59 -27 -228 -74 -355 -99 -165 -33
-326 -61 -440 -79 -123 -19 -199 -29 -480 -65 -603 -77 -825 -82 -825 -20 0 8
22 57 50 108 48 89 90 225 146 471 9 39 22 95 29 125 31 130 87 381 100 450 8
41 25 129 39 195 40 195 100 541 146 845 13 82 43 298 70 500 11 85 25 180 30
210 6 30 14 89 19 130 9 68 22 157 67 450 8 52 19 127 24 165 12 84 24 156
119 745 47 288 68 434 106 715 9 66 22 163 30 215 8 52 19 131 25 175 5 44 16
130 25 190 20 150 53 388 70 518 8 59 22 158 30 220 22 158 64 475 100 750 8
61 24 182 35 267 25 187 46 348 65 495 15 116 44 341 70 540 9 66 22 172 30
235 8 63 24 187 35 275 29 227 49 382 65 520 14 115 38 312 70 570 9 66 22
176 30 245 8 69 23 202 35 295 11 94 27 231 36 305 8 74 22 191 30 260 26 218
53 461 69 605 9 77 23 199 31 270 23 211 54 490 69 635 8 74 17 155 20 180 22
196 38 366 50 545 43 594 75 991 130 1635 8 96 22 270 30 385 8 116 17 235 20
265 15 153 54 998 55 1181 0 124 0 126 28 150 59 55 174 86 532 143 52 9 140
20 194 25 104 11 116 17 116 62 0 14 4 50 9 80 6 30 17 97 26 149 30 180 56
305 91 440 34 131 99 332 126 387 20 42 126 77 393 127 77 15 160 31 185 37
25 5 74 13 110 19 36 5 126 19 200 30 422 65 755 94 1072 95 221 0 249 -2 264
-17 16 -16 16 -19 2 -35 -47 -55 -167 -282 -222 -422 -97 -245 -138 -421 -171
-731 -32 -294 -74 -658 -80 -695 -5 -29 -27 -200 -45 -355 -4 -41 -11 -115
-14 -165 -3 -49 -13 -189 -21 -310 -20 -280 -52 -797 -65 -1030 -5 -99 -12
-225 -15 -280 -44 -822 -81 -1941 -100 -3005 -7 -416 -7 -2270 1 -2540 13
-507 47 -1432 59 -1595 3 -44 12 -204 20 -355 31 -579 65 -1100 85 -1305 5
-55 12 -145 16 -200 3 -55 8 -111 10 -125 2 -14 11 -101 19 -195 30 -336 91
-894 135 -1225 11 -85 27 -204 35 -265 20 -151 41 -305 65 -465 11 -74 27
-184 35 -245 29 -214 45 -333 80 -570 61 -411 65 -439 70 -455 2 -8 9 -44 14
-80 11 -78 37 -226 86 -490 20 -107 49 -267 65 -355 16 -88 45 -245 65 -350
19 -104 40 -215 45 -245 16 -87 40 -209 55 -280 7 -36 23 -110 35 -165 71
-330 181 -783 279 -1147 47 -176 64 -238 149 -578 49 -195 104 -418 122 -495
18 -77 36 -144 40 -148 5 -5 11 13 14 40 3 26 13 104 21 173 9 69 23 181 31
250 13 118 24 198 59 442 8 57 23 171 35 253 12 83 27 195 35 250 8 55 21 150
29 210 8 61 24 178 36 260 11 83 27 200 35 260 14 110 26 199 65 480 11 83 27
202 35 265 8 63 21 167 30 230 26 188 55 411 99 755 9 66 25 192 36 280 11 88
27 214 36 280 34 272 44 358 64 510 11 88 27 216 36 285 20 172 39 325 63 525
42 343 52 423 66 545 8 69 24 202 35 295 29 240 47 389 64 545 9 74 25 212 36
305 12 94 27 226 35 295 14 122 22 186 65 550 38 318 49 414 64 545 8 72 25
209 36 305 12 96 28 231 35 300 8 69 21 181 29 250 9 69 25 204 36 300 11 96
27 229 35 295 8 66 21 179 30 250 8 72 24 207 35 300 11 94 27 226 35 295 8
69 17 143 20 165 3 22 9 78 15 125 5 47 19 164 30 260 12 96 28 231 35 300 14
120 20 168 65 545 20 170 35 294 64 540 17 145 49 415 72 605 8 69 21 184 29
255 8 72 23 209 35 305 11 96 27 238 36 315 8 77 22 199 30 270 37 339 79 721
99 910 8 77 23 223 34 325 11 102 25 232 30 290 6 58 13 128 16 155 4 28 12
113 20 190 8 77 24 230 35 340 11 110 25 250 30 310 6 61 12 130 15 155 10 89
67 734 90 1025 40 494 79 1065 109 1585 3 47 8 128 11 180 8 136 23 453 40
835 18 403 19 1197 3 1590 -18 432 -20 404 21 427 50 28 146 63 311 112 397
120 844 204 1305 246 44 4 160 7 258 6 146 -1 180 -4 188 -16z m-31483 -2345
c155 -20 284 -55 362 -97 52 -27 143 -92 179 -127 21 -20 85 -80 144 -134 146
-135 399 -449 665 -824 l71 -100 110 -7 c61 -3 117 -9 126 -12 28 -11 195
-242 292 -404 42 -69 151 -297 186 -385 39 -100 84 -232 117 -345 12 -41 28
-95 35 -120 58 -191 157 -578 225 -874 55 -241 77 -404 126 -921 8 -88 16
-171 19 -185 2 -14 6 -68 10 -120 3 -52 10 -138 15 -190 23 -234 51 -853 56
-1265 7 -534 -10 -1122 -46 -1595 -31 -408 -29 -386 -70 -770 -26 -249 -59
-565 -65 -620 -3 -25 -12 -106 -20 -180 -8 -74 -24 -218 -35 -320 -12 -102
-27 -243 -35 -315 -8 -71 -21 -188 -29 -260 -43 -377 -57 -501 -70 -615 -8
-69 -22 -186 -30 -260 -9 -74 -25 -211 -36 -305 -11 -93 -25 -210 -30 -260 -6
-49 -17 -144 -25 -210 -68 -558 -65 -532 -109 -805 -18 -113 -52 -329 -71
-455 -8 -49 -21 -130 -29 -180 -8 -49 -24 -151 -36 -225 -22 -139 -37 -236
-64 -400 -15 -90 -40 -246 -72 -445 -8 -49 -21 -135 -30 -189 -8 -55 -17 -103
-20 -108 -7 -11 7 -32 15 -22 3 5 44 43 91 84 232 204 548 519 746 745 167
189 157 171 170 320 3 44 8 89 10 100 3 11 11 76 19 145 8 69 24 202 35 295
11 94 27 226 35 295 8 69 17 143 20 165 2 22 9 81 15 130 5 50 19 167 30 260
11 94 27 229 35 300 8 72 17 148 20 170 2 22 9 83 15 135 6 52 19 169 30 260
10 91 24 210 29 265 6 55 14 118 16 140 7 54 33 280 50 445 8 74 17 149 20
165 3 17 11 91 20 165 18 169 40 353 100 857 9 68 22 178 30 245 8 68 24 197
35 288 11 91 27 219 35 285 8 66 21 174 30 240 9 66 22 176 31 245 8 69 21
172 29 230 8 58 17 128 20 155 3 28 7 61 9 75 2 14 7 52 11 85 3 33 12 105 20
160 8 55 21 156 30 225 32 246 119 861 185 1305 36 236 64 449 101 745 26 212
40 343 89 830 7 63 13 119 13 123 3 13 -19 23 -101 48 -78 25 -143 57 -149 75
-5 16 217 109 452 189 100 34 256 76 390 104 55 12 118 26 140 31 53 12 214
37 350 56 234 32 445 45 835 54 386 8 532 18 860 60 41 5 120 12 175 15 55 4
145 10 200 16 352 32 1024 29 1321 -6 628 -74 980 -186 1254 -399 150 -117
260 -246 354 -413 72 -129 93 -178 143 -328 52 -153 67 -259 66 -470 -1 -365
-93 -745 -276 -1135 -19 -41 -53 -113 -74 -160 -109 -234 -201 -423 -345 -712
-144 -289 -182 -363 -303 -583 -46 -83 -343 -587 -392 -665 -19 -30 -71 -113
-115 -185 -44 -71 -95 -152 -112 -180 -18 -27 -61 -95 -97 -150 -71 -111 -385
-581 -442 -662 -20 -29 -53 -77 -74 -105 -20 -29 -68 -97 -107 -152 -39 -54
-83 -115 -97 -135 -237 -336 -1331 -1790 -1413 -1877 -41 -43 -390 -497 -685
-889 -461 -614 -785 -1028 -1073 -1373 -60 -72 -60 -73 -79 -180 -10 -59 -19
-121 -19 -138 l0 -31 78 13 c93 16 275 48 392 68 193 34 330 58 414 72 49 8
92 16 96 19 12 8 375 43 665 64 433 33 1347 38 1870 12 l169 -9 27 -32 c15
-17 42 -71 60 -118 29 -73 34 -103 37 -187 3 -90 1 -109 -24 -175 -59 -162
-93 -270 -104 -331 -6 -35 -53 -194 -105 -354 -83 -257 -132 -415 -180 -580
-45 -156 -58 -205 -98 -355 -49 -183 -106 -408 -137 -545 -11 -49 -25 -108
-30 -130 -17 -68 -131 -609 -151 -715 -6 -30 -21 -109 -34 -175 -32 -163 -86
-454 -111 -600 -40 -240 -55 -332 -73 -450 -12 -77 -26 -165 -31 -195 -6 -30
-17 -102 -26 -160 -8 -58 -21 -145 -29 -195 -45 -292 -121 -808 -135 -918 -5
-40 -19 -139 -30 -222 -126 -924 -171 -1443 -198 -2290 l-7 -210 -40 -22
c-107 -59 -621 -96 -1355 -97 -481 -1 -530 1 -590 17 -82 24 -103 41 -96 82 3
16 12 80 20 140 16 119 34 246 66 480 11 83 27 200 35 260 8 61 21 157 29 215
8 58 24 173 35 255 11 83 27 202 36 265 9 63 22 162 30 220 8 58 23 173 35
255 11 83 27 197 35 255 8 58 21 157 30 220 9 63 25 180 36 260 10 80 26 197
35 260 9 63 22 160 29 215 8 55 23 170 35 255 12 85 27 200 35 255 17 128 58
404 100 675 9 52 22 140 30 195 13 92 32 215 70 463 8 50 21 134 29 185 8 50
24 153 36 227 12 74 26 164 31 200 5 36 21 133 35 215 13 83 29 177 34 210 38
256 175 1000 245 1335 8 36 32 155 55 265 23 110 57 247 77 305 26 78 37 128
41 194 l5 89 -24 -7 c-28 -7 -219 -56 -334 -85 -44 -11 -123 -30 -175 -44 -52
-13 -138 -34 -190 -47 -91 -21 -155 -39 -347 -96 -126 -37 -281 -73 -406 -94
-60 -10 -112 -21 -115 -25 -18 -18 -43 -510 -77 -1535 -3 -91 -11 -291 -17
-445 -6 -155 -12 -724 -13 -1279 l-1 -1000 -33 -18 c-48 -27 -232 -54 -511
-74 -193 -15 -367 -18 -825 -19 -546 0 -583 1 -635 19 -71 25 -81 39 -75 101
2 28 7 95 10 150 20 373 73 1132 115 1675 10 122 40 487 60 725 5 66 12 147
15 180 2 33 7 87 10 120 3 33 10 116 16 185 5 69 19 226 29 350 26 299 29 270
-27 270 -65 0 -310 42 -474 81 -291 69 -409 90 -415 75 -4 -11 -15 -77 -49
-291 -8 -49 -32 -198 -55 -330 -22 -132 -45 -267 -50 -300 -5 -33 -19 -114
-30 -180 -21 -125 -39 -228 -64 -380 -8 -49 -31 -184 -51 -300 -20 -115 -42
-248 -50 -295 -8 -47 -23 -137 -35 -200 -11 -63 -27 -152 -35 -198 -8 -45 -21
-119 -29 -165 -8 -45 -24 -131 -36 -192 -11 -60 -27 -144 -35 -185 -43 -229
-120 -610 -181 -895 -20 -93 -42 -199 -49 -235 -13 -62 -34 -156 -55 -245 -5
-22 -18 -83 -30 -135 -28 -121 -58 -254 -70 -305 -5 -22 -19 -80 -31 -130 -66
-289 -174 -720 -288 -1155 -43 -164 -201 -745 -256 -940 -38 -136 -128 -399
-190 -560 -23 -60 -137 -393 -145 -425 -11 -45 -98 -303 -116 -344 -83 -187
-170 -346 -273 -499 -57 -86 -84 -132 -176 -307 -111 -210 -159 -248 -422
-335 -104 -35 -209 -69 -235 -76 -27 -8 -69 -20 -95 -28 -106 -31 -232 -67
-303 -86 -41 -11 -88 -25 -105 -29 -16 -5 -97 -25 -180 -45 -142 -34 -215 -51
-415 -97 -47 -11 -103 -24 -125 -29 -79 -19 -173 -40 -350 -80 -256 -58 -398
-91 -497 -116 -141 -35 -301 -10 -463 73 -172 87 -395 250 -471 344 -16 20
-101 125 -189 234 -190 233 -232 293 -317 445 -82 148 -268 528 -268 547 0 3
-6 19 -14 36 -8 18 -26 61 -41 97 -14 36 -30 74 -35 85 -21 46 -167 422 -225
580 -70 192 -104 295 -168 510 -43 145 -53 177 -116 405 -23 81 -105 408 -146
585 -50 210 -121 571 -180 920 -62 361 -73 428 -94 570 -12 77 -28 181 -36
230 -22 138 -58 388 -95 665 -51 380 -50 367 -65 595 -3 44 -8 103 -10 130 -2
28 -7 100 -10 160 -3 61 -10 162 -16 225 -13 162 -47 713 -65 1070 -3 74 -10
203 -14 285 -7 151 -4 1955 4 2030 2 22 9 150 15 285 6 135 14 270 17 300 2
30 13 190 24 355 17 261 34 486 55 725 3 36 10 117 15 180 5 63 18 205 29 315
11 110 25 247 31 305 5 58 12 128 16 155 3 28 12 106 19 175 17 145 48 404 69
570 8 63 22 169 30 235 32 247 88 640 136 945 12 74 26 164 31 200 5 36 16
103 24 150 8 47 22 128 31 180 22 135 41 244 99 565 43 238 157 820 215 1095
11 52 27 127 35 165 22 106 38 172 93 390 51 201 96 385 127 525 60 264 133
542 185 700 38 117 88 278 110 355 96 342 332 1081 478 1490 63 180 210 574
222 600 5 11 34 85 65 165 50 130 111 281 135 335 5 11 20 47 34 80 13 33 40
94 59 135 19 41 58 127 87 190 157 343 412 820 635 1185 198 324 488 744 555
805 3 3 47 53 98 111 51 58 116 126 145 150 63 55 142 109 157 109 11 0 407
131 450 149 83 35 683 213 850 252 423 100 820 138 1078 104z m11492 -16730
c139 -18 196 -39 194 -70 -2 -33 -31 -268 -84 -670 -11 -88 -27 -211 -35 -272
-8 -62 -22 -164 -30 -225 -8 -62 -24 -183 -35 -268 -41 -312 -67 -528 -100
-845 -11 -104 -22 -208 -25 -230 -3 -22 -10 -96 -15 -165 -6 -69 -13 -145 -15
-170 -3 -25 -9 -97 -15 -160 -9 -104 -24 -266 -65 -690 -45 -466 -70 -703
-110 -1030 -2 -19 -9 -75 -15 -125 -6 -49 -23 -169 -36 -265 -14 -96 -32 -220
-39 -275 -23 -165 -26 -173 -52 -190 -49 -33 -172 -45 -563 -56 -737 -21
-1514 21 -1657 89 -42 20 -43 43 -4 120 79 157 132 329 176 572 36 197 44 237
89 435 22 95 48 218 112 540 20 102 61 341 69 405 9 73 30 186 65 350 30 135
52 254 69 372 5 35 19 124 31 198 12 74 27 176 35 225 8 50 23 149 35 220 31
190 50 308 66 415 28 180 55 349 129 815 23 149 55 355 70 450 8 50 24 149 35
220 12 72 24 148 27 171 3 23 13 45 22 51 31 19 171 42 361 58 269 22 275 23
750 20 335 -2 464 -7 560 -20z m5074 -7100 l6 -30 -14 25 c-8 14 -12 28 -9 33
7 11 9 7 17 -28z m-20592 -4117 c-7 -7 -12 -8 -12 -2 0 14 12 26 19 19 2 -3
-1 -11 -7 -17z"/>
<path d="M10664 31767 c-272 -363 -556 -800 -749 -1152 -21 -38 -60 -110 -87
-160 -27 -49 -100 -193 -163 -320 -105 -213 -139 -284 -185 -390 -10 -22 -29
-65 -43 -95 -13 -30 -41 -93 -62 -140 -20 -47 -48 -109 -61 -138 -13 -29 -24
-55 -24 -57 0 -3 -9 -24 -19 -48 -11 -23 -45 -103 -76 -177 -31 -74 -62 -148
-70 -165 -69 -157 -337 -852 -447 -1160 -190 -535 -254 -748 -344 -1145 -48
-212 -125 -485 -194 -685 -54 -156 -228 -838 -315 -1235 -9 -41 -23 -102 -30
-135 -8 -33 -21 -91 -29 -130 -8 -38 -22 -101 -30 -140 -23 -101 -84 -407
-120 -595 -22 -119 -54 -290 -72 -385 -8 -44 -21 -118 -29 -165 -8 -47 -28
-168 -44 -270 -17 -102 -35 -210 -41 -240 -11 -60 -73 -486 -90 -615 -5 -44
-17 -132 -26 -195 -62 -465 -134 -1154 -164 -1570 -5 -74 -12 -164 -15 -200
-3 -36 -12 -186 -20 -335 -8 -148 -17 -301 -20 -340 -15 -193 -26 -786 -26
-1350 0 -854 18 -1420 56 -1730 38 -311 46 -385 65 -595 11 -124 22 -256 25
-295 13 -155 54 -511 80 -685 46 -316 113 -735 140 -890 9 -47 18 -98 21 -115
6 -33 68 -371 88 -480 33 -174 130 -642 156 -750 121 -504 210 -821 324 -1157
72 -213 97 -284 105 -303 5 -11 18 -45 29 -75 156 -420 261 -666 407 -955 164
-324 344 -616 543 -880 91 -121 364 -401 381 -391 12 8 168 240 223 331 127
213 536 1135 633 1430 8 22 30 85 50 140 21 55 43 118 50 140 8 22 46 132 85
245 39 113 92 268 116 345 25 77 63 192 84 255 21 63 56 176 79 250 24 74 48
153 56 175 7 22 22 72 33 110 12 39 28 93 36 120 28 94 107 360 126 428 11 37
29 97 40 135 19 66 89 319 115 417 7 28 23 86 34 130 90 332 234 919 305 1240
14 66 33 147 40 180 8 33 24 105 36 160 12 55 26 119 31 143 11 47 34 162 54
262 25 128 135 676 149 745 9 39 18 86 21 105 3 19 10 53 15 75 5 22 19 92 31
155 11 63 34 180 49 260 16 80 38 197 50 260 11 63 27 147 35 185 14 73 31
163 65 355 12 63 28 149 35 190 8 41 24 127 35 190 12 63 28 149 35 190 15 80
31 172 65 365 11 66 27 156 35 200 8 44 21 123 30 175 9 52 23 129 30 170 16
85 126 753 180 1085 19 121 44 276 56 345 41 255 36 215 85 675 39 369 81 785
99 981 8 89 17 177 19 195 3 19 8 75 11 124 3 50 10 128 16 175 8 77 23 254
49 585 5 66 12 149 15 185 3 36 12 160 20 275 8 116 17 235 20 265 10 96 46
684 64 1025 10 206 10 1124 0 1325 -36 679 -77 1138 -148 1650 -44 314 -59
404 -98 600 -30 149 -46 228 -67 335 -43 221 -97 422 -164 615 -114 326 -166
476 -238 690 -137 408 -253 624 -475 889 l-36 43 -165 -12 c-91 -7 -182 -10
-202 -6 -36 7 -38 11 -100 139 -80 165 -178 341 -257 460 -85 129 -242 336
-254 336 -5 0 -78 -91 -161 -202z m603 -7131 c9 -8 10 -33 3 -101 -6 -49 -17
-162 -25 -250 -24 -260 -34 -358 -60 -590 -46 -414 -66 -580 -96 -810 -16
-126 -34 -268 -40 -315 -5 -47 -14 -112 -19 -145 -5 -33 -19 -130 -30 -215
-11 -85 -27 -198 -35 -250 -8 -52 -24 -162 -35 -245 -11 -82 -25 -175 -30
-205 -5 -30 -17 -104 -26 -165 -8 -60 -22 -153 -30 -205 -31 -202 -92 -651
-129 -960 -7 -63 -23 -194 -35 -290 -29 -245 -48 -403 -65 -560 -8 -74 -23
-223 -35 -330 -79 -732 -146 -1507 -199 -2302 -11 -152 -22 -281 -26 -287 -24
-40 -254 -108 -705 -210 -78 -17 -291 -58 -390 -75 -215 -35 -293 -46 -458
-61 -139 -14 -182 -15 -222 -5 -44 11 -50 15 -50 38 0 40 30 380 85 962 9 91
22 235 30 320 8 85 24 250 35 365 12 116 27 275 35 355 8 80 21 215 30 300 22
220 66 671 79 825 3 33 12 139 21 235 8 96 17 193 20 215 5 36 12 129 45 535
5 69 12 153 15 188 17 205 26 328 55 747 36 504 68 1014 90 1420 18 339 23
857 11 1230 -7 204 -13 379 -14 389 -3 29 48 59 170 99 100 33 455 127 618
164 39 9 95 21 125 28 273 62 324 73 535 109 383 66 713 89 752 52z"/>
<path d="M18576 29390 c-177 -46 -318 -100 -311 -118 3 -8 -5 -47 -19 -86
-112 -332 -291 -975 -379 -1361 -38 -165 -56 -245 -71 -320 -9 -44 -23 -109
-31 -145 -7 -36 -30 -144 -50 -240 -20 -96 -45 -215 -56 -265 -10 -49 -23
-112 -29 -140 -6 -27 -19 -93 -30 -145 -12 -52 -27 -124 -34 -160 -8 -36 -22
-99 -30 -140 -64 -296 -141 -662 -157 -750 -11 -58 -26 -141 -35 -185 -8 -44
-22 -116 -29 -160 -8 -44 -22 -118 -30 -165 -34 -186 -111 -630 -140 -815 -8
-49 -22 -133 -30 -185 -57 -360 -86 -564 -139 -980 -25 -197 -35 -282 -61
-535 -8 -77 -19 -188 -25 -247 -6 -60 -10 -115 -8 -123 2 -9 46 44 102 122 86
119 726 1013 775 1083 74 104 309 441 424 607 102 147 363 542 452 684 76 122
389 647 453 759 138 246 214 386 267 495 50 105 125 266 125 270 0 2 18 42 41
90 22 49 64 142 94 209 29 67 65 148 80 181 14 33 33 74 40 90 7 17 30 68 50
115 20 47 47 109 61 138 13 28 35 80 50 115 14 34 31 76 38 92 15 32 62 163
94 260 31 94 80 329 92 443 19 190 10 395 -25 557 -16 73 -21 87 -78 225 -20
47 -39 96 -43 110 -3 14 -43 63 -88 110 -46 47 -101 111 -124 142 -53 72 -86
97 -197 148 -50 23 -119 55 -155 72 -147 70 -371 136 -550 163 -129 20 -158
19 -284 -15z"/>
<path d="M14402 35733 c-60 -21 -135 -97 -155 -157 -44 -127 1 -259 109 -325
l43 -26 1 -85 c0 -99 15 -161 57 -245 87 -170 266 -279 479 -292 160 -10 282
36 395 147 206 203 211 524 11 727 -108 109 -233 162 -402 170 -76 3 -118 0
-153 -10 l-48 -15 -47 47 c-76 76 -187 101 -290 64z"/>
<path d="M14043 34781 c-168 -62 -273 -238 -242 -405 27 -149 127 -259 273
-301 251 -72 508 166 456 421 -25 122 -98 217 -207 270 -76 38 -202 44 -280
15z"/>
<path d="M44365 19937 c-90 -30 -144 -76 -186 -157 -31 -61 -32 -166 -3 -231
26 -55 80 -111 137 -141 62 -33 184 -32 249 1 57 29 98 71 130 131 32 63 33
186 0 247 -63 120 -211 188 -327 150z"/>
<path d="M43801 19265 c-259 -57 -432 -288 -433 -580 -1 -216 128 -404 332
-485 105 -42 254 -43 359 -4 l45 17 25 -34 c41 -54 81 -89 135 -117 44 -23 64
-27 136 -27 72 0 93 4 140 27 85 42 164 118 202 196 29 59 33 76 33 147 0 71
-4 89 -33 147 -53 107 -155 181 -271 195 -51 6 -51 6 -51 42 0 104 -63 242
-151 331 -70 71 -193 135 -289 150 -81 12 -99 12 -179 -5z"/>
<path d="M24561 6094 c-174 -59 -300 -194 -346 -371 -20 -76 -20 -251 0 -328
60 -227 273 -395 503 -395 236 0 453 172 507 401 19 83 19 248 0 322 -24 91
-72 176 -139 243 -141 140 -344 190 -525 128z"/>
<path d="M31873 3735 c-241 -65 -407 -293 -390 -535 14 -189 121 -347 292
-431 202 -98 419 -63 583 94 254 244 194 660 -119 827 -109 58 -252 76 -366
45z"/>
</g>
</svg>
